<?xml version="1.0" encoding="UTF-8"?>
<svg width="16px" height="16px" viewBox="0 0 16 16" version="1.1" xmlns="http://www.w3.org/2000/svg" xmlns:xlink="http://www.w3.org/1999/xlink">
    <!-- Generator: sketchtool 52.5 (67469) - http://www.bohemiancoding.com/sketch -->
    <title>C35A1D3E-AD7F-4946-A39B-DF39B2CB516F</title>
    <desc>Created with sketchtool.</desc>
    <g id="Super-Admin" stroke="none" stroke-width="1" fill="none" fill-rule="evenodd">
        <g id="SA-Dashboard-Pro-Profile---Verified" transform="translate(-1312.000000, -136.000000)" fill="#FFFFFF" fill-rule="nonzero">
            <g id="Actions" transform="translate(264.000000, 128.000000)">
                <g id="Edit" transform="translate(1040.000000, 0.000000)">
                    <g id="Icon/SA/Black/Edit" transform="translate(8.000000, 8.000000)">
                        <path d="M12.2305079,6.44243237 L9.64737713,3.85930151 C9.62021164,3.83213602 9.59678852,3.80247905 9.57711865,3.77101736 L3.0288766,10.335789 L5.5376011,13.0535459 L12.2305079,6.44243237 Z M12.9305809,5.75091481 L14.3525026,4.34637026 C14.549635,4.14874027 14.549635,3.88299826 14.3525026,3.68536826 L12.3572929,1.68512204 C12.1523141,1.47962585 11.8627406,1.47962585 11.6577618,1.68512204 L10.2583102,3.08810632 C10.2800176,3.10358983 10.3007857,3.12111943 10.3203656,3.14069935 L12.9305809,5.75091481 Z M5.81324463,14.1397693 C5.70564317,14.2264142 5.57140962,14.2616226 5.44227207,14.2466636 L1.13445733,15.4805747 C0.75647251,15.5888429 0.410314153,15.2266221 0.52091045,14.838558 L1.85105031,10.1713167 C1.87531632,10.0861713 1.92049123,10.0089267 1.98220226,9.94705986 L10.9606463,0.945951727 C11.5537514,0.351349424 12.4613038,0.351349424 13.0544089,0.945951727 L15.0496187,2.94619798 C15.6505702,3.54866648 15.6505702,4.48307222 15.0469555,5.08819093 L6.00200449,14.0226242 C5.94824244,14.0757293 5.88373273,14.1157107 5.81324463,14.1397693 Z M4.53118567,13.4375827 L2.56842247,11.3112778 L1.7341032,14.2387664 L4.53118567,13.4375827 Z" id="ic_edit_black"></path>
                    </g>
                </g>
            </g>
        </g>
    </g>
</svg>