<?xml version="1.0" encoding="UTF-8"?>
<svg width="16px" height="12px" viewBox="0 0 16 12" version="1.1" xmlns="http://www.w3.org/2000/svg" xmlns:xlink="http://www.w3.org/1999/xlink">
    <!-- Generator: sketchtool 52.5 (67469) - http://www.bohemiancoding.com/sketch -->
    <title>ACABFECE-A9B1-4DB2-9E02-98536373B75C</title>
    <desc>Created with sketchtool.</desc>
    <g id="Super-Admin" stroke="none" stroke-width="1" fill="none" fill-rule="evenodd">
        <g id="SA-Dashboard-Pro-Profile---Verified" transform="translate(-264.000000, -412.000000)" fill="#3C3E44" fill-rule="nonzero">
            <g id="Profile" transform="translate(232.000000, 168.000000)">
                <g id="Email" transform="translate(32.000000, 240.000000)">
                    <g id="Icon/SA/Email" transform="translate(0.000000, 2.000000)">
                        <path d="M1.5,4.13081612 L1.5,12.5 L14.5,12.5 L14.5,4.13081598 L8.30485529,8.89631191 C8.12512941,9.03456258 7.87487041,9.03456258 7.69514453,8.89631191 L1.5,4.13081612 Z M13.6799389,3.5 L2.32006097,3.5 L7.99999991,7.86918379 L13.6799389,3.5 Z M1.5,2.5 L14.5,2.5 C15.0522847,2.5 15.5,2.94771525 15.5,3.5 L15.5,12.5 C15.5,13.0522847 15.0522847,13.5 14.5,13.5 L1.5,13.5 C0.94771525,13.5 0.5,13.0522847 0.5,12.5 L0.5,3.5 C0.5,2.94771525 0.94771525,2.5 1.5,2.5 Z" id="ic_email_black"></path>
                    </g>
                </g>
            </g>
        </g>
    </g>
</svg>